<?xml version="1.0" encoding="UTF-8" standalone="no"?>
<!-- Created with Inkscape (http://www.inkscape.org/) -->

<svg
   width="252"
   height="252"
   viewBox="0 0 252 252"
   version="1.1"
   id="svg5"
   xml:space="preserve"
   xmlns="http://www.w3.org/2000/svg"
   xmlns:svg="http://www.w3.org/2000/svg"><defs
     id="defs2" /><g
     id="layer1"
     transform="translate(-139.52949)"><g
       id="g40"
       transform="matrix(21,0,0,21,160.52949,0)"
       style="fill:#000000;fill-opacity:1;stroke-width:0.0476191"><path
         id="path39"
         style="fill:#000000;fill-opacity:1;stroke:none;stroke-width:0.0952381;stroke-linecap:round;stroke-dasharray:none"
         d="M 2,0 A 2,2 0 0 0 0,2 V 8 A 1,1 0 0 0 1,9 1,1 0 0 0 2,8 1,1 0 0 1 3,7 1,1 0 0 1 4,8 v 2 a 1,1 0 0 0 1,1 1,1 0 0 0 1,-1 1,1 0 0 1 1,-1 1,1 0 0 1 1,1 v 1 a 1,1 0 0 0 1,1 1,1 0 0 0 1,-1 V 2 A 2,2 0 0 0 8,0 Z M 7,6 A 1,1 0 0 1 8,7 1,1 0 0 1 7,8 1,1 0 0 1 6,7 1,1 0 0 1 7,6 Z" /><circle
         style="fill:#000000;fill-opacity:1;stroke:none;stroke-width:0.0952381;stroke-linecap:round;stroke-dasharray:none"
         id="circle39"
         cx="1"
         cy="11"
         r="1" /></g></g></svg>
